HIERARCHY
ROOT Hips
{
	OFFSET 0.00000 0.00000 0.00000
	CHANNELS 6 Xposition Yposition Zposition Zrotation Yrotation Xrotation 
	JOINT LHipJoint
	{
		OFFSET 0 0 0
		CHANNELS 3 Zrotation Yrotation Xrotation
		JOINT LeftHip
		{
			OFFSET 1.26600 -1.82114 0.91038
			CHANNELS 3 Zrotation Yrotation Xrotation
			JOINT LeftKnee
			{
				OFFSET 2.50076 -6.87080 0.00000
				CHANNELS 3 Zrotation Yrotation Xrotation
				JOINT LeftAnkle
				{
					OFFSET 2.57364 -7.07102 0.00000
					CHANNELS 3 Zrotation Yrotation Xrotation
					JOINT LeftToe
					{
						OFFSET 0.13572 -0.37290 1.97004
						CHANNELS 3 Zrotation Yrotation Xrotation
						End Site
						{
							OFFSET 0.00000 -0.00000 1.01383
						}
					}
				}
			}
		}
	}
	JOINT RHipJoint
	{
		OFFSET 0 0 0
		CHANNELS 3 Zrotation Yrotation Xrotation
		JOINT RightHip
		{
			OFFSET -1.20803 -1.82114 0.91038
			CHANNELS 3 Zrotation Yrotation Xrotation
			JOINT RightKnee
			{
				OFFSET -2.54916 -7.00377 0.00000
				CHANNELS 3 Zrotation Yrotation Xrotation
				JOINT RightAnkle
				{
					OFFSET -2.56374 -7.04382 0.00000
					CHANNELS 3 Zrotation Yrotation Xrotation
					JOINT RightToe
					{
						OFFSET -0.23520 -0.64621 2.09921
						CHANNELS 3 Zrotation Yrotation Xrotation
						End Site
						{
							OFFSET -0.00000 -0.00000 1.10065
						}
					}
				}
			}
		}
	}
	JOINT lowerback
	{
		OFFSET 0 0 0
		CHANNELS 3 Zrotation Yrotation Xrotation
		JOINT Chest
		{
			OFFSET 0.05492 2.10797 -0.12074
			CHANNELS 3 Zrotation Yrotation Xrotation
			JOINT Chest2
			{
				OFFSET 0.04577 2.11592 -0.04483
				CHANNELS 3 Zrotation Yrotation Xrotation
				JOINT lowerneck
				{
					OFFSET 0 0 0
					CHANNELS 3 Zrotation Yrotation Xrotation
					JOINT Neck
					{
						OFFSET -0.10759 1.80167 0.15770
						CHANNELS 3 Zrotation Yrotation Xrotation
						JOINT Head
						{
							OFFSET 0.09237 1.77509 -0.40848
							CHANNELS 3 Zrotation Yrotation Xrotation
							End Site
							{
								OFFSET 0.03805 1.84093 -0.15754
							}
						}
					}
				}
				JOINT LeftCollar
				{
					OFFSET 0 0 0
					CHANNELS 3 Zrotation Yrotation Xrotation
					JOINT LeftShoulder
					{
						OFFSET 3.42372 1.09575 -0.28209
CHANNELS 3 Zrotation Xrotation Yrotation
						JOINT LeftElbow
						{
OFFSET 0 -4.956810 0.000000
CHANNELS 3 Zrotation Xrotation Yrotation
							JOINT LeftWrist
							{
OFFSET 0 -3.409150 0.000000
CHANNELS 3 Zrotation Xrotation Yrotation
								JOINT lhand
								{
									OFFSET 0 0 0
CHANNELS 3 Zrotation Xrotation Yrotation
									JOINT LFingers
									{
OFFSET 0 -0.616400 0.000000
CHANNELS 3 Zrotation Xrotation Yrotation
										End Site
										{
OFFSET 0 -0.496960 0.000000
										}
									}
								}
								JOINT LThumb
								{
OFFSET 0 0.000000 0.000000
CHANNELS 3 Zrotation Xrotation Yrotation
									End Site
									{
OFFSET 0 -0.504550 0.504550
									}
								}
							}
						}
					}
				}
				JOINT RightCollar
				{
					OFFSET 0 0 0
					CHANNELS 3 Zrotation Yrotation Xrotation
					JOINT RightShoulder
					{
						OFFSET -3.24731 1.15872 -0.32221
CHANNELS 3 Zrotation Xrotation Yrotation
						JOINT RightElbow
						{
OFFSET 0 -5.352000 0.000000
CHANNELS 3 Zrotation Xrotation Yrotation
							JOINT RightWrist
							{
OFFSET 0 -3.437210 -0.000000
CHANNELS 3 Zrotation Xrotation Yrotation
								JOINT rhand
								{
									OFFSET 0 0 0
CHANNELS 3 Zrotation Xrotation Yrotation
									JOINT RFingers
									{
OFFSET 0 -0.720090 0.000000
CHANNELS 3 Zrotation Xrotation Yrotation
										End Site
										{
OFFSET 0 -0.580560 0.000000
										}
									}
								}
								JOINT RThumb
								{
OFFSET 0 0.000000 0.000000
CHANNELS 3 Zrotation Xrotation Yrotation
									End Site
									{
OFFSET 0 -0.589420 0.589420
									}
								}
							}
						}
					}
				}
			}
		}
	}
}
MOTION
Frames: 9
Frame Time: 0.008333333333333333
-1.493061 23.047309 3.270714 -178.584010 174.157711 175.640037 0.000000 0.000000 0.000000 -22.896638 -1.116184 6.806090 2.824854 10.405762 30.301025 1.005824 -15.457569 -19.568967 0.071911 -1.722897 -4.740728 0.000000 0.000000 0.000000 16.962683 -0.019450 -29.960646 -2.746527 -10.272720 29.864784 -0.576852 -11.598130 14.748244 -0.821115 -5.780827 16.149922 -2.568905 -0.856527 6.635739 2.112839 -1.265896 3.456653 3.705019 -0.682750 -0.047527 -7.957893 -0.700067 -12.800712 1.129394 1.049837 39.826119 2.115725 -0.582291 16.451213 0.000000 0.000000 0.000000 2.196180 4.611350 -24.671572 16.829301 -26.632220 4.010525 17.318784 3.877455 -19.634201 0.000000 0.000000 0.000000 -7.125000 0.000000 0.000000 -10.967093 50.150158 1.407261 0.000000 0.000000 0.000000 -1.913682 7.933252 9.316605 -12.803409 -20.998449 -2.382401 -18.784124 -10.445872 -10.456714 0.000000 0.000000 0.000000 7.125000 0.000000 0.000000 5.843552 18.980248 3.644193
-1.615059 22.658906 3.977401 -178.626165 172.334272 175.425117 0.000000 0.000000 0.000000 -21.351656 -1.638838 4.946947 4.723312 13.064774 39.612063 0.702329 -20.110301 -19.381625 0.097834 -2.005087 -5.520150 0.000000 0.000000 0.000000 16.936019 -1.070052 -27.067578 -1.557575 -7.876093 22.338598 -0.765857 -17.764965 18.724065 -1.410487 -7.511540 21.239911 -2.722101 -0.740934 5.982612 2.083465 -1.107372 3.321787 3.740025 -0.606407 0.165199 -8.291856 -1.024483 -11.905430 1.551939 0.438704 40.225738 2.265508 -0.825342 16.480926 0.000000 0.000000 0.000000 2.412359 5.565446 -23.139854 17.855317 -27.971530 4.481223 18.166726 2.952671 -19.854496 0.000000 0.000000 0.000000 -7.125000 0.000000 0.000000 -10.222646 50.509240 1.400642 0.000000 0.000000 0.000000 -1.600861 9.828584 10.766293 -13.124929 -21.470041 -2.498840 -19.028272 -11.596934 -10.505714 0.000000 0.000000 0.000000 7.125000 0.000000 0.000000 5.671176 18.911532 3.544501
-1.770172 22.203587 4.826876 -178.893504 170.632873 175.433768 0.000000 0.000000 0.000000 -19.399999 -2.531226 4.468612 6.566463 14.955374 47.214301 -0.134908 -26.229878 -17.671993 0.010532 0.485644 1.335117 0.000000 0.000000 0.000000 17.263717 -2.428834 -23.906887 -1.174116 -6.877779 19.353770 -1.140650 -19.895466 22.137443 -2.139194 -9.150189 26.266363 -2.939956 -0.781493 4.612903 2.169024 -1.143006 3.033160 3.930722 -0.632680 0.639440 -8.255239 -1.201407 -11.665463 1.738579 0.106568 40.986167 2.305685 -0.945721 16.859814 0.000000 0.000000 0.000000 2.376977 6.367817 -20.088456 17.985661 -28.138777 4.542505 17.067696 2.949270 -22.850829 0.000000 0.000000 0.000000 -7.125000 0.000000 0.000000 -12.461831 53.337651 2.589931 0.000000 0.000000 0.000000 -1.397756 10.481337 10.016564 -12.708629 -20.858753 -2.348524 -18.906656 -10.367137 -10.375422 0.000000 0.000000 0.000000 7.125000 0.000000 0.000000 5.756262 19.056591 3.579281
-1.962879 21.680195 5.823225 -179.392688 170.044902 174.832823 0.000000 0.000000 0.000000 -17.170249 -2.101709 6.556235 7.925032 16.063372 52.291458 -0.703670 -29.274502 -16.569156 0.064904 1.641469 4.515923 0.000000 0.000000 0.000000 19.048889 -4.744689 -20.197501 -1.541190 -7.836494 22.218780 -0.948060 -8.919963 17.545607 -0.196185 -2.816412 7.770511 -2.814077 -0.487350 3.222467 2.229933 -0.718744 2.662663 3.892371 -0.419871 0.994527 -8.516628 -1.330664 -11.437223 2.154898 -0.158468 41.659326 2.515876 -1.050709 17.201614 0.000000 0.000000 0.000000 2.222678 8.180493 -17.251713 17.520485 -27.538411 4.325419 18.598350 2.345401 -22.073956 0.000000 0.000000 0.000000 -7.125000 0.000000 0.000000 -10.618656 52.832580 2.073981 0.000000 0.000000 0.000000 -1.090162 11.292539 8.243343 -12.198359 -20.101524 -2.169966 -19.330341 -9.926398 -9.754185 0.000000 0.000000 0.000000 7.125000 0.000000 0.000000 5.450557 19.679007 3.311614
-2.179657 21.204427 6.747611 -181.237314 169.573077 174.099785 0.000000 0.000000 0.000000 -13.442055 -3.761169 5.157702 11.142866 18.002172 63.242149 -1.704861 -28.419477 -8.320642 0.007035 0.518332 1.424288 0.000000 0.000000 0.000000 22.015977 -5.863735 -17.106645 -2.118370 -9.108071 26.134204 0.018668 2.800294 2.383184 -0.031799 1.150753 -3.163692 -1.261799 -0.410545 3.790463 2.692368 -0.569032 1.791384 3.499275 -0.300553 -0.245323 -8.474677 -1.202365 -11.350226 2.188512 0.042317 42.100321 2.572038 -0.964529 17.415993 0.000000 0.000000 0.000000 1.772445 10.098599 -15.150385 16.256106 -25.866644 3.756971 21.059560 2.093511 -21.147340 0.000000 0.000000 0.000000 -7.125000 0.000000 0.000000 -7.809706 52.327569 1.416078 0.000000 0.000000 0.000000 -1.441069 10.688734 6.970734 -11.361729 -18.840501 -1.891083 -19.525370 -9.139382 -10.760591 0.000000 0.000000 0.000000 7.125000 0.000000 0.000000 5.322970 18.607145 3.360793
-2.331182 20.902486 7.423296 -184.545643 171.372047 172.557544 0.000000 0.000000 0.000000 -7.161653 -4.210946 -1.441797 15.954959 19.600653 78.096018 -1.402953 -20.960006 13.148351 1.481391 7.688925 21.773794 0.000000 0.000000 0.000000 27.335200 -6.814678 -14.365041 -2.233435 -9.336044 26.852398 -0.077532 2.291325 -4.950323 -0.000428 -0.086506 0.237641 2.647376 0.004708 5.562471 3.556451 0.200453 2.161712 2.160680 0.102416 -0.897008 -8.058249 -1.055192 -11.587640 1.858105 0.285556 41.229916 2.365761 -0.814590 16.957747 0.000000 0.000000 0.000000 0.100106 9.390276 -10.313221 14.442586 -23.363799 3.001402 21.535569 5.500172 -21.025774 0.000000 0.000000 0.000000 -7.125000 0.000000 0.000000 -7.293363 52.286469 1.315309 0.000000 0.000000 0.000000 -2.581605 6.429987 4.953688 -10.816395 -18.006308 -1.718732 -18.637359 -5.927710 -11.075035 0.000000 0.000000 0.000000 7.125000 0.000000 0.000000 5.952530 18.344704 3.797651
-2.402223 20.865950 7.881524 -185.630441 173.247641 172.265868 0.000000 0.000000 0.000000 -3.856657 -3.566632 -10.241918 20.755286 19.984332 92.209017 -1.094660 -18.166763 7.320902 0.003234 -0.270455 -0.743195 0.000000 0.000000 0.000000 29.490809 -6.090357 -10.331582 -1.808307 -8.454622 24.103865 -0.165075 1.519083 -7.293639 -0.045358 -1.366211 3.757116 4.441962 0.579977 6.640898 3.955079 1.113415 2.723342 1.503930 0.568161 -0.904903 -8.049025 -1.089429 -11.827945 1.964688 0.234137 41.758345 2.421532 -0.832371 17.322977 0.000000 0.000000 0.000000 -0.950939 7.318593 -11.847254 12.930512 -21.185240 2.428115 18.290918 7.240788 -21.898037 0.000000 0.000000 0.000000 -7.125000 0.000000 0.000000 -10.847890 52.602059 2.048389 0.000000 0.000000 0.000000 -4.562112 1.154384 6.513983 -11.833445 -19.554307 -2.046272 -18.982125 -8.375995 -10.572638 0.000000 0.000000 0.000000 7.125000 0.000000 0.000000 5.704488 18.844748 3.573927
-2.370542 21.014175 8.179759 -186.419543 174.116751 172.556748 0.000000 0.000000 0.000000 -2.782607 -3.489149 -18.904741 23.390740 19.721848 99.958195 -0.882834 -18.678421 -2.730281 0.001435 0.190201 0.522575 0.000000 0.000000 0.000000 30.577490 -6.803843 -6.900651 -1.121487 -6.725876 18.906099 -0.081711 1.072534 -5.125839 -0.056053 -1.506451 4.143756 6.484696 0.609569 7.739886 4.261048 1.378450 2.908097 0.651538 0.704034 -1.275131 -8.101080 -1.034904 -11.858576 1.636700 0.471162 41.688676 2.319894 -0.783800 17.280924 0.000000 0.000000 0.000000 -1.940963 7.498160 -16.070262 14.161814 -22.965318 2.891106 14.876127 10.144005 -20.006461 0.000000 0.000000 0.000000 -7.125000 0.000000 0.000000 -13.446620 50.138151 1.730391 0.000000 0.000000 0.000000 -6.669878 -1.663589 12.158302 -16.267817 -25.879008 -3.764001 -19.912945 -14.634757 -8.532658 0.000000 0.000000 0.000000 7.125000 0.000000 0.000000 5.027216 20.927688 2.909006
-2.359480 21.126557 8.420265 -186.487543 174.219426 173.515366 0.000000 0.000000 0.000000 -3.620481 -4.549249 -25.818127 22.934783 19.791752 98.609643 -0.376082 -17.197323 -8.034136 0.005365 0.047012 0.129225 0.000000 0.000000 0.000000 31.016472 -7.128228 -4.233527 -0.600489 -4.959883 13.794342 -0.047586 0.167811 -4.071100 -0.040086 -1.285146 3.533721 7.432553 0.758606 8.233733 4.198307 1.692088 2.979791 0.027608 0.860882 -1.429679 -8.034053 -1.138715 -12.150465 1.783288 0.227996 40.657625 2.310566 -0.819665 16.787501 0.000000 0.000000 0.000000 -1.270284 7.959553 -23.086764 16.680518 -26.434154 3.944327 14.865662 5.423200 -19.527763 0.000000 0.000000 0.000000 -7.125000 0.000000 0.000000 -13.277488 49.661519 1.550950 0.000000 0.000000 0.000000 -8.241570 -3.141408 16.738610 -22.758328 -33.819982 -7.004911 -21.938069 -21.804486 -11.155690 0.000000 0.000000 0.000000 7.125000 0.000000 0.000000 3.632777 17.991929 2.337749
